<?xml version="1.0" encoding="utf-8"?>
<!-- Generator: Adobe Illustrator 21.0.0, SVG Export Plug-In . SVG Version: 6.00 Build 0)  -->
<svg version="1.1"
	 id="svg2" inkscape:export-filename="/storage/app-loundry/electron/res/default_logo.png" inkscape:export-xdpi="71" inkscape:export-ydpi="71" inkscape:version="0.92.1 r15371" sodipodi:docname="default_logo.svg" xmlns:cc="http://creativecommons.org/ns#" xmlns:dc="http://purl.org/dc/elements/1.1/" xmlns:inkscape="http://www.inkscape.org/namespaces/inkscape" xmlns:rdf="http://www.w3.org/1999/02/22-rdf-syntax-ns#" xmlns:sodipodi="http://sodipodi.sourceforge.net/DTD/sodipodi-0.dtd" xmlns:svg="http://www.w3.org/2000/svg"
	 xmlns="http://www.w3.org/2000/svg" xmlns:xlink="http://www.w3.org/1999/xlink" x="0px" y="0px" viewBox="0 0 210.1 210.1"
	 style="enable-background:new 0 0 210.1 210.1;" xml:space="preserve">
<style type="text/css">
	.st0{fill:#8CCDF0;}
	.st1{fill:#1B8BC8;}
	.st2{fill:#FFFFFF;}
</style>
<circle id="path4610" class="st0" cx="104.8" cy="104.2" r="79.9"/>
<path id="path14" inkscape:connector-curvature="0" class="st1" d="M105,193.6c-48.9,0-88.5-39.6-88.5-88.5S56.1,16.5,105,16.5
	c48.9,0,88.5,39.6,88.5,88.5S153.9,193.6,105,193.6L105,193.6z M105,0C47,0,0,47,0,105s47,105,105,105c58,0,105-47,105-105
	S163,0,105,0"/>
<path id="path18" inkscape:connector-curvature="0" class="st1" d="M184.6,105c0,43.9-35.6,79.6-79.6,79.6
	c-43.9,0-79.6-35.6-79.6-79.6c0-12.5,2.9-24.9,8.6-36.1c3.7-7.2,14.7-26.9,24.4-26.4c4.4,0.2,6.9,5.8,5.7,10.1
	c-1.2,4.3-4.8,7.4-8.1,10.3c-7.5,6.6-15,14.2-17.5,23.9c-0.6,2.3-0.9,4.9,0.2,7c1.1,2.1,4.2,3.3,6.1,1.8c0-4.3,0.9-8.6,2.6-12.5
	c1.2-2.9,2.9-5.7,5.5-7.4c2.6-1.8,6.2-2.3,8.8-0.6c3.7,2.4,3.9,8,2,11.9c-1.9,4-5.3,7-7.9,10.6c-5.8,8.1-6.6,19.8-1.1,28
	c5.6,8.3,17.7,11.7,26.3,6.6c3.1-1.8,5.6-4.6,8.4-6.9c5.5-4.5,12.3-7.3,19.3-8.1c2.3-0.2,4.7-0.2,7,0.4c2.3,0.7,4.4,2.1,6.5,3.4
	c8.3,5.1,18.1,8.2,27.9,7.5s19.4-5.5,24.9-13.6c5-7.3,6.2-16.6,6.3-25.4c0,0.3,2.6,3.9,2.9,5C184.8,97.9,184.6,101.8,184.6,105"/>
<path id="path20" inkscape:connector-curvature="0" class="st1" d="M60.1,66.7c1.2,0.2,2.4,0.5,3.5,0.9c3,1,10.8,10.6,12.2,18.5
	c3.3-2.4,6.2-5.5,8.9-8.5c-0.1,11.6,5.8,23.2,2.9,34.4c-0.9,3.3-2.5,6.4-3.4,9.7c-0.5,1.8-0.8,3.7-1,5.6c2.1-1.6,4-3.6,6-5.3
	c5.5-4.5,12.3-7.3,19.3-8.1c2.3-0.2,4.7-0.2,7,0.4c2.3,0.7,4.4,2.1,6.5,3.4c7.9,4.9,17.2,7.9,26.5,7.6c-0.3-4.1-0.1-8.2,0.4-12.3
	c1.1-7.8,4.1-15,5.7-22.7c0.3-1.4,1.6-12,0.3-13.1c2.3,2.1,4.2,4.4,5.5,7.3c0.3,0.6,0.8,1.4,1.4,1.2c3.9-5.8,9.8-10,15.6-14
	c1.4-1-15.1-20.4-17-22.4c-4-4.3-9.6-6.7-15.5-6.7h-9.9c0,7.1-6.6,12.9-14.7,12.9s-14.7-5.8-14.7-12.9c0,0-9.9,0-9.9,0
	c-6.9,0-13.1,3.8-18.1,8.3c-1,0.9-2,1.4-3,2.2c-2.1,1.9-4.2,3.7-6.2,5.8c-2.1,2.2-4.2,4.4-6.5,6.3C61.3,65.7,60.7,66.2,60.1,66.7"/>
<g id="g4531">
	<path id="path30" inkscape:connector-curvature="0" class="st2" d="M154.3,127.1c-0.1,0-0.2,0-0.3,0c1.8-0.1,3.2-1.6,3.2-3.5
		c0-1.8-1.4-3.3-3.2-3.5c0.1,0,0.2,0,0.3,0c1.9,0,3.5,1.6,3.5,3.5C157.8,125.5,156.2,127.1,154.3,127.1L154.3,127.1z M154.3,119.6
		c-2.2,0-4,1.8-4,4c0,2.2,1.8,4,4,4c2.2,0,4-1.8,4-4C158.3,121.4,156.5,119.6,154.3,119.6"/>
	<path id="path22" inkscape:connector-curvature="0" class="st2" d="M119.5,143.3c-0.1,0-0.2,0-0.3,0c2.3-0.2,4.1-2.1,4.1-4.4
		c0-2.3-1.8-4.3-4.1-4.4c0.1,0,0.2,0,0.3,0c2.5,0,4.5,2,4.5,4.5C124,141.3,122,143.3,119.5,143.3z M119.5,133.8
		c-2.8,0-5.1,2.3-5.1,5.1c0,2.8,2.3,5.1,5.1,5.1c2.8,0,5.1-2.3,5.1-5.1C124.6,136.1,122.3,133.8,119.5,133.8"/>
	<path id="path24" inkscape:connector-curvature="0" class="st2" d="M101.3,133.1c-0.1,0-0.2,0-0.3,0c2.3-0.2,4.1-2.1,4.1-4.4
		c0-2.3-1.8-4.3-4.1-4.4c0.1,0,0.2,0,0.3,0c2.5,0,4.5,2,4.5,4.5C105.7,131.1,103.7,133.1,101.3,133.1z M101.3,123.6
		c-2.8,0-5.1,2.3-5.1,5.1c0,2.8,2.3,5.1,5.1,5.1c2.8,0,5.1-2.3,5.1-5.1C106.4,125.9,104.1,123.6,101.3,123.6"/>
	<path id="path26" inkscape:connector-curvature="0" class="st2" d="M44.1,128c-0.1,0-0.2,0-0.3,0c2.3-0.2,4.1-2.1,4.1-4.4
		c0-2.4-1.8-4.3-4.1-4.4c0.1,0,0.2,0,0.3,0c2.5,0,4.5,2,4.5,4.5C48.6,126,46.6,128,44.1,128z M44.1,118.5c-2.8,0-5.1,2.3-5.1,5.1
		c0,2.8,2.3,5.1,5.1,5.1c2.8,0,5.1-2.3,5.1-5.1C49.2,120.8,47,118.5,44.1,118.5"/>
	<path id="path28" inkscape:connector-curvature="0" class="st2" d="M139.5,146.2c-0.1,0-0.2,0-0.3,0c1.8-0.1,3.2-1.6,3.2-3.5
		c0-1.8-1.4-3.3-3.2-3.5c0.1,0,0.2,0,0.3,0c1.9,0,3.5,1.6,3.5,3.5C143,144.7,141.5,146.2,139.5,146.2L139.5,146.2z M139.5,138.8
		c-2.2,0-4,1.8-4,4c0,2.2,1.8,4,4,4c2.2,0,4-1.8,4-4S141.7,138.8,139.5,138.8"/>
	<path id="path32" inkscape:connector-curvature="0" class="st2" d="M115.5,111.5c-0.1,0-0.2,0-0.3,0c1.8-0.1,3.2-1.6,3.2-3.5
		c0-1.8-1.4-3.3-3.2-3.5c0.1,0,0.2,0,0.3,0c1.9,0,3.5,1.6,3.5,3.5C119,109.9,117.5,111.5,115.5,111.5L115.5,111.5z M115.5,104
		c-2.2,0-4,1.8-4,4c0,2.2,1.8,4,4,4c2.2,0,4-1.8,4-4C119.5,105.8,117.7,104,115.5,104"/>
	<path id="path34" inkscape:connector-curvature="0" class="st2" d="M69.8,104.5c-0.1,0-0.2,0-0.3,0c1.8-0.1,3.2-1.6,3.2-3.5
		c0-1.8-1.4-3.3-3.2-3.5c0.1,0,0.2,0,0.3,0c1.9,0,3.5,1.6,3.5,3.5C73.3,103,71.8,104.5,69.8,104.5L69.8,104.5z M69.8,97.1
		c-2.2,0-4,1.8-4,4c0,2.2,1.8,4,4,4c2.2,0,4-1.8,4-4C73.8,98.9,72,97.1,69.8,97.1"/>
	<path id="path36" inkscape:connector-curvature="0" class="st2" d="M68.5,126c-0.2,0-0.4,0-0.6,0c4.3-0.3,7.8-3.9,7.8-8.4
		c0-4.4-3.4-8-7.8-8.4c0.2,0,0.4,0,0.6,0c4.6,0,8.4,3.8,8.4,8.4C76.9,122.2,73.1,126,68.5,126L68.5,126z M68.5,108
		c-5.3,0-9.6,4.3-9.6,9.6s4.3,9.6,9.6,9.6c5.3,0,9.6-4.3,9.6-9.6S73.8,108,68.5,108"/>
	<path id="path38" inkscape:connector-curvature="0" class="st2" d="M86.9,155.8c-0.1,0-0.3,0-0.4,0c3-0.2,5.3-2.7,5.3-5.7
		c0-3-2.3-5.5-5.3-5.7c0.1,0,0.3,0,0.4,0c3.2,0,5.7,2.6,5.7,5.7C92.6,153.3,90.1,155.8,86.9,155.8L86.9,155.8z M86.9,143.6
		c-3.6,0-6.5,2.9-6.5,6.5c0,3.6,2.9,6.5,6.5,6.5c3.6,0,6.5-2.9,6.5-6.5C93.5,146.5,90.5,143.6,86.9,143.6"/>
	<path id="path40" inkscape:connector-curvature="0" class="st2" d="M55.8,90.6c-0.1,0-0.3,0-0.4,0c3-0.2,5.3-2.7,5.3-5.7
		s-2.3-5.5-5.3-5.7c0.1,0,0.3,0,0.4,0c3.2,0,5.7,2.6,5.7,5.7S58.9,90.6,55.8,90.6L55.8,90.6z M55.8,78.4c-3.6,0-6.5,2.9-6.5,6.5
		c0,3.6,2.9,6.5,6.5,6.5c3.6,0,6.5-2.9,6.5-6.5C62.3,81.3,59.4,78.4,55.8,78.4"/>
	<path id="path42" inkscape:connector-curvature="0" class="st2" d="M162.4,117.3c-0.1,0-0.3,0-0.4,0c3-0.2,5.3-2.7,5.3-5.7
		c0-3-2.3-5.5-5.3-5.7c0.1,0,0.3,0,0.4,0c3.2,0,5.7,2.6,5.7,5.7C168.1,114.7,165.5,117.3,162.4,117.3L162.4,117.3z M162.4,105
		c-3.6,0-6.5,2.9-6.5,6.5c0,3.6,2.9,6.5,6.5,6.5c3.6,0,6.5-2.9,6.5-6.5C168.9,108,166,105,162.4,105"/>
	<path id="path44" inkscape:connector-curvature="0" class="st2" d="M136.5,115.8c-0.1,0-0.3,0-0.4,0c3-0.2,5.3-2.7,5.3-5.7
		c0-3-2.3-5.5-5.3-5.7c0.1,0,0.3,0,0.4,0c3.2,0,5.7,2.6,5.7,5.7C142.2,113.3,139.7,115.8,136.5,115.8L136.5,115.8z M136.5,103.6
		c-3.6,0-6.5,2.9-6.5,6.5c0,3.6,2.9,6.5,6.5,6.5c3.6,0,6.5-2.9,6.5-6.5C143.1,106.5,140.1,103.6,136.5,103.6"/>
	<path id="path46" inkscape:connector-curvature="0" class="st2" d="M102.3,110.5c-0.2,0-0.4,0-0.6,0c4-0.3,7.1-3.6,7.1-7.7
		s-3.1-7.4-7.1-7.7c0.2,0,0.4,0,0.6,0c4.2,0,7.7,3.4,7.7,7.7C109.9,107,106.5,110.5,102.3,110.5L102.3,110.5z M102.3,94
		c-4.9,0-8.8,3.9-8.8,8.8c0,4.9,3.9,8.8,8.8,8.8c4.9,0,8.8-3.9,8.8-8.8C111.1,97.9,107.1,94,102.3,94"/>
</g>
<g>
	<path class="st2" d="M197.9,210.6c-2.6,0-4.6-2.3-4.6-5.4c0-4.4,2.5-6.8,5.3-9.2v-3.6c-1.1,1.3-2.3,1.9-3.7,1.9
		c-1.5,0-2.8-0.7-3.7-1.9c-1.1,1.2-2.5,1.9-4,1.9c-2.4,0-4.9-1.4-4.9-5.4c0-2.5,0.6-5.2,1.9-8.9h-2.5c-0.1,1.3-0.3,4.9-1.1,7.5
		c0,0,0,0.1,0,0.1c-1.2,4.3-3.5,6.7-6.5,6.7c-1.3,0-2.5-0.5-3.3-1.4c-1.1,0.9-2.4,1.4-3.7,1.4c-1.7,0-3.2-0.6-4.3-1.8
		c-1.1,1.2-2.5,1.8-4,1.8c-2.4,0-4.1-1.9-4.1-4.5V181c0-0.5,0-1.9-0.4-1.9c-0.8,0-3.4,3.3-3.7,6.6l0,6.2c0,0.7,0,1.4-0.5,1.9
		c-0.3,0.3-0.7,0.4-1.2,0.4c-1.2,0-2-0.5-2.3-1.3c-1,0.9-2.2,1.3-3.5,1.3c-1.6,0-3-0.9-3.7-2.4c-1.2,1.6-2.5,2.4-4.1,2.4
		c-1.5,0-2.8-0.7-3.7-1.9c-1.1,1.2-2.5,1.8-4,1.8c-1.3,0-2.5-0.5-3.3-1.5c-1,1-2.2,1.5-3.6,1.5c-3,0-5-2.1-5.5-5.5
		c-0.4,3-2.5,5.9-5.9,5.9c-2.4,0-4.3-1.5-6.1-3.2c-1.1,1.8-2.7,2.9-4.6,2.9c-3.2,0-4.9-2.5-4.9-4.9c0-2.9,2.4-5.2,5.4-5.2
		c0.2,0,0.4,0,0.6,0c-0.3-1-0.7-1.9-1.2-2.9c-1-2.3-2.1-4.7-2.1-7.9c0-5.6,4.1-11.6,10.6-11.6c4,0,6.9,2.6,6.9,6.3
		c0,5.1-5,9.5-9.1,9.5c-1.3,0-2.7-0.9-2.7-2.9c0-0.7,0.4-1.1,0.8-1.1c0.2,0,0.3,0.1,0.4,0.2c0.1,0.1,0.2,0.1,0.4,0.1
		c2.5,0,5.7-2.9,5.7-5.2c0-1.6-1-2.6-2.6-2.6c-3.8,0-6.1,3.8-6.1,7.5c0,2.1,0.8,4,1.6,6.1c0.9,2.2,1.8,4.5,1.9,7.2
		c0.3,0.3,0.7,0.7,1,1c1.3,1.3,2.5,2.5,3.6,2.5c2.5,0,2.6-3.1,2.6-3.4c0-0.2,0-0.3,0-0.4c0-0.1,0-0.2,0-0.3c0-0.2,0.1-0.8,1-0.8
		c1.4,0,2.4,0.7,2.7,1.6c0.2-7.5,5.6-11.6,10.6-11.6c1.4,0,2.5,0.9,2.5,2.3c0,0.4,0,1.5-1.1,1.5c-0.2,0-0.4,0-0.6,0
		c-0.2,0-0.4,0-0.6,0c-3.2,0-6.5,2.9-6.5,8.4c0,0.9,0.2,3,1.9,3c0.9,0,1.5-1,1.9-1.8v-6.5c0-0.4-0.1-0.7-0.1-0.9
		c0-0.2-0.1-0.3-0.1-0.5c0-0.7,0.7-1.2,1.6-1.2c1.6,0,2.8,1,2.8,2.4v7c0,0.5,0.2,1.5,0.9,1.5c1,0,1.6-1.4,2-2.6l0-0.2
		c0-4.5,1.5-9.5,1.6-9.7c0.1-0.2,0.1-0.3,0.1-0.4c0.2-0.8,0.6-1.5,2.6-1.5c0.8,0,1.3,0.2,1.5,0.6c0.4,0.6,0.1,1.4-0.2,2
		c-0.1,0.1-0.1,0.3-0.2,0.4l0,0.1c-0.7,3.1-1.2,4.9-1.2,8.4c0,0.9,0.1,3,1.5,3c1.2,0,2.5-2.2,3-5.3l0-6.8c0-0.7-0.1-0.9-0.2-1.1
		c-0.1-0.1-0.2-0.3-0.2-0.5c0-0.9,1.7-1,1.9-1c1.6,0,2.8,1,2.8,2.4v10.8c0,0.7,0.1,1.5,0.6,1.5c0.7,0,1.7-0.7,2.4-4.2
		c0-0.2,0.1-0.4,0.2-0.6v-7.3c0-0.4-0.1-0.7-0.1-0.9c0-0.2-0.1-0.3-0.1-0.5c0-0.7,0.7-1.2,1.6-1.2c1.6,0,2.8,1,2.8,2.4v0
		c1.2-1.9,2.7-2.8,4.3-2.8c2.6,0,4,1.8,4,4.8v8.8c0,0.7,0.1,1.5,0.6,1.5c0.6,0,1.2-0.6,1.7-1.7c-0.1-0.6-0.2-1.2-0.2-1.8
		c0-6,3.4-10.5,8.6-11.4v-9.2c0-0.7-0.1-0.9-0.2-1.1c-0.1-0.1-0.2-0.3-0.2-0.5c0-0.9,1.7-1,1.9-1c1.6,0,2.8,1,2.8,2.4v22.9
		c0,0.5,0.2,1.5,0.9,1.5c0.7,0,1.7-0.7,2.4-4.2c0,0,0-0.1,0-0.1c0,0,0-0.1,0-0.1c0.5-1.8,0.6-5.5,0.7-7c-1.2-0.8-1.8-1.8-1.8-3
		c0-1.4,1.2-2.5,2.6-2.5c0.7,0,2.4,0.2,3.1,2.3c1.1,0.1,1.5,0.1,1.9,0.1h2.2c0.5,0,1.4,0.6,1.9,1.3c0.5,0.6,0.7,1.2,0.6,1.7
		c0,0.1-0.1,0.4-0.3,1.3c-0.6,1.9-1.6,5.4-1.6,8.5c0,0.8,0.3,1.8,1.2,1.8c0.9,0,1.7-0.9,2.2-2.6l0-0.2c0-4.5,1.5-9.5,1.6-9.7
		c0.1-0.2,0.1-0.3,0.1-0.4c0.2-0.8,0.6-1.5,2.6-1.5c0.8,0,1.2,0.2,1.5,0.6c0.4,0.6,0.1,1.4-0.2,2c-0.1,0.1-0.1,0.3-0.2,0.4l0,0.1
		c-0.7,3.1-1.2,4.9-1.2,8.4c0,0.9,0.1,3,1.5,3c1.2,0,2.5-2.2,3-5.3l0-6.8c0-0.4-0.1-0.7-0.1-0.9c0-0.2-0.1-0.3-0.1-0.5
		c0-0.7,0.7-1.2,1.6-1.2c1.6,0,2.8,1,2.8,2.4v13.6c1.3-1.6,2.2-3.5,2.8-5.5c0.1-0.4,0.5-1.6,1.5-1.6c1,0,2,1.2,2,2.2
		c0,0.1,0,0.4-0.1,0.5c-1.5,5-4,7.6-6.2,9.6v7.1C202.8,208.8,200.3,210.6,197.9,210.6z M198.6,200.8c-0.9,1.2-1.3,2.6-1.3,4.2
		c0,1.1,0.4,1.8,0.6,1.8c0.1,0,0.2,0,0.3-0.1c0.4-0.5,0.4-1.9,0.4-2.5L198.6,200.8z M165.3,187.1c0.1,2,1,3.2,2.3,3.2
		c0.8,0,1.4-0.4,2-1.3v-9.8c-2.8,0.8-4.2,3.1-4.3,6.9c0.1,0.2,0.1,0.4,0.1,0.5C165.4,186.8,165.4,186.9,165.3,187.1z M98.6,188.1
		c-0.6,0-1,0.4-1,1.1c0,0.5,0.3,1.1,1,1.1c0.8,0,1.3-0.8,1.5-1.7C99.5,188.2,99,188.1,98.6,188.1z M21.3,194.2
		c-1.6-0.1-3.3-1.8-3.3-5.4V169c0-2.7-1-2.7-1.5-2.7c-0.5,0-1.5,0-1.5,3.2v22.8c0.1,0.1,0.2,0.3,0.2,0.5c0,0.9-1.9,1.5-3,1.5
		c-0.5,0-1.6,0-1.6-1.3V169c0-2.7-0.9-2.7-1.5-2.7c-0.5,0-1.5,0-1.5,2.7v18.9c0,5.5-2.6,6.3-4.2,6.3c-1.7,0-2.5-1.3-2.5-2.5
		c0-0.7,0.7-0.7,0.9-0.7c0.2,0,0.4,0,0.5-0.1c0.1,0,0.9-0.4,0.9-3.6v-17.8c0-5.4,3.1-7.3,5.8-7.3c0.7,0,2.5,0.2,3.9,1.5
		c0.9-1,2.1-1.5,3.5-1.5c2.9,0,5.9,1.9,5.9,7.3v19c0,1.3,0.6,2.3,1.6,2.8c0.4,0.2,0.5,0.6,0.4,1C24.2,193.1,22.7,194.2,21.3,194.2
		C21.4,194.2,21.3,194.2,21.3,194.2z M79.7,194.2c-2.4,0-4.7-1.1-6.2-3.1c-1.5,2-3.3,3.1-5.2,3.1c-3.8,0-6.1-4.2-6.1-7.2
		c0-0.7,0.6-1.3,1.4-2c1.2-1.1,2.6-2.4,2.6-4.6c0-0.6-0.3-1.3-0.9-1.3c-0.9,0-2.6,1.5-3.8,5.5v7.3c0,0.7,0,1.4-0.5,1.9
		c-0.3,0.3-0.7,0.4-1.2,0.4c-1.6,0-2.5-0.9-2.5-2.4V191c-0.7,0.3-1.4,0.4-2.2,0.4c-0.7,0-1.3-0.1-1.9-0.2c-1.3,2-3.1,3-5.3,3
		c-2.5,0-4.5-1.2-5.6-3.4c-0.8,0.4-1.7,0.7-2.8,0.7c-0.7,0-1.4-0.1-1.9-0.2c-1.3,2-3.1,3-5.4,3c-4,0-6.5-2.9-6.5-7.6v-20.3
		c0-0.7-0.1-0.9-0.2-1.1c-0.1-0.1-0.2-0.3-0.2-0.5c0-0.9,1.7-1,1.9-1c1.6,0,2.8,1,2.8,2.4v20c0,1,0.2,4.4,2.5,4.4
		c0.7,0,1.2-0.3,1.6-0.9c-2.3-1.9-3.8-4.8-3.8-7.9c0-4,2.1-5.5,4.1-5.5c2.5,0,5,2.3,5,7.4c0,1.5-0.2,3.1-0.5,4.4c0.1,0,0.2,0,0.3,0
		c0.9,0,1.6-0.4,2.1-1.2c0-0.4,0-0.7,0-1.1c0-6.4,3.5-10.6,4.8-10.6c0.9,0,1.5,0.8,1.8,1.6c0.1,0.4,0.1,0.7,0.1,1.1
		c0.7-1.1,1.7-1.7,3-1.7c2.4,0,4.1,3.3,4.1,7.7c0,1.5-0.2,2.9-0.5,4.2c0.1,0,0.1,0,0.2,0c2,0,2.4-1.8,2.6-2.6l0-19.2
		c0-0.7-0.1-0.9-0.2-1.1c-0.1-0.1-0.2-0.3-0.2-0.5c0-0.9,1.7-1,1.9-1c1.6,0,2.8,1,2.8,2.4v11.9c1.5-1.7,3-2.6,4.5-2.6
		c2.6,0,4.3,2,4.3,5.1c0,3.6-2.6,6.1-4,7.2c0.3,1.2,1,2.8,2.5,2.8c1.3,0,2.5-1.7,3.1-3.3c-0.1-0.6-0.1-1.2-0.1-1.8c0-6,3.6-10,7-10
		c2.6,0,4.3,1.9,4.3,4.8c0,3.2-2.1,7-6.1,8.4c0.7,1.2,1.7,1.8,3.3,1.8c3.1,0,4.3-2.7,4.7-5c0.2-1.1,1-1.5,1.7-1.5
		c0.5,0,1.1,0.3,1.5,0.7c0.4,0.4,0.5,0.9,0.5,1.4C88.3,187.4,87.1,194.2,79.7,194.2z M47.1,179.2c-0.7,1-1.7,2.5-1.7,6.3
		c0,2.9,1,4.9,2.6,4.9c0.8,0,1.4-0.3,1.9-1c-1.9-1.8-2.9-4.5-2.9-7.7c0-1,0.2-2,0.4-2.7c0,0-0.1,0.1-0.1,0.1L47.1,179.2z M34.1,180
		c0,0-0.3,0.2-0.3,1.5c0,1.4,0.4,2.9,1.2,4c0-0.5,0.1-1,0.1-1.6C35.1,180.9,34.3,180,34.1,180l0-0.5L34.1,180z M78.3,179.1
		c-0.3,0-0.5,0.1-0.7,0.4c-1,1.1-1.5,4.1-1.4,5.6c1.6-1,2.5-2.9,2.5-4.9C78.7,179.6,78.5,179.1,78.3,179.1z M50.4,180
		c-0.1,0.1-0.2,0.4-0.2,1.5c0,1.2,0.3,2.4,0.7,3.4c0-0.1,0-0.2,0-0.4C50.9,181,50.6,180.1,50.4,180z"/>
	<path class="st1" d="M106.9,162.2c3.8,0,6.4,2.4,6.4,5.8c0,5-4.9,9-8.6,9c-1.2,0-2.2-0.8-2.2-2.4c0-0.3,0.1-0.6,0.3-0.6
		c0.1,0,0.3,0.3,0.8,0.3c2.8,0,6.2-3.1,6.2-5.7c0-1.7-1-3.1-3.1-3.1c-3.9,0-6.6,3.8-6.6,8c0,4.4,3.4,8.2,3.5,13.5
		c1.8,1.7,3.4,3.8,5.1,3.8c2.4,0,3.1-2.4,3.1-3.9c0-0.4-0.1-0.6-0.1-0.8c0-0.2,0.2-0.3,0.5-0.3c1.5,0,2.3,0.9,2.3,1.9
		c0,3.3-2.2,6.4-5.5,6.4c-2.5,0-4.5-1.8-6.2-3.6c-0.8,1.7-2.3,3.2-4.5,3.2c-2.8,0-4.4-2.1-4.4-4.4c0-2.8,2.3-4.7,4.9-4.7
		c0.5,0,0.9,0.1,1.4,0.2c-1-3.7-3.5-6.7-3.5-11.5C96.8,167.9,100.9,162.2,106.9,162.2 M98.6,190.7c1.2,0,1.8-1.2,2-2.4
		c-0.6-0.5-1.3-0.8-2-0.8c-0.9,0-1.5,0.6-1.5,1.6C97.1,189.9,97.6,190.7,98.6,190.7 M16.5,162.7c2.6,0,5.4,1.8,5.4,6.8v19
		c0,1.8,0.9,2.8,1.9,3.3c0.7,0.4-1,2-2.4,2c0,0,0,0-0.1,0c-1.4,0-2.8-1.6-2.8-4.9V169c0-3.2-1.4-3.2-2-3.2c-0.6,0-2,0-2,3.7v23
		c0.1,0,0.2,0.1,0.2,0.2c0,0.4-1.4,1-2.5,1c-0.6,0-1.1,0-1.1-0.8V169c0-3.2-1.4-3.2-2-3.2c-0.6,0-2,0-2,3.2v18.9
		c0,3.8-1.3,5.8-3.7,5.8c-1.6,0-2-1.3-2-2c0-0.4,0.6-0.1,1.2-0.3c0.6-0.2,1.2-1.2,1.2-4v-17.8c0-5,2.7-6.8,5.3-6.8
		c0.7,0,2.6,0.2,3.9,1.7C14.1,162.8,15.7,162.7,16.5,162.7 M171.1,164.1c1.4,0,2.3,0.9,2.3,1.9v22.9c0,0.9,0.4,2,1.4,2
		c1.7,0,2.5-2.7,2.9-4.6c0,0,0,0,0-0.1c0-0.1,0-0.1,0-0.2c0.5-1.7,0.6-5.2,0.7-7.4c-1.1-0.6-1.8-1.5-1.8-2.7c0-1.2,1-2,2.1-2
		c1,0,2.2,0.5,2.7,2.3c1.4,0.2,1.8,0.2,2.3,0.2h2.2c0.5,0,2.2,1.4,2,2.4c0,0.5-1.9,5.5-1.9,9.8c0,1.2,0.6,2.3,1.7,2.3
		c1.5,0,2.2-1.5,2.7-3.1c0-0.1,0-0.2,0-0.2c0-4.5,1.5-9.6,1.5-9.6c0.3-0.7,0-1.6,2.3-1.6c2.1,0,0.9,1.7,0.7,2.3
		c-0.8,3.2-1.2,5-1.2,8.6c0,2.3,0.7,3.5,2,3.5c1.7,0,3-2.8,3.5-5.8v-6.9c0-0.8-0.2-1.1-0.2-1.4c0-0.4,0.5-0.7,1.1-0.7
		c1.4,0,2.3,0.9,2.3,1.9v15c1.5-1.7,2.9-3.8,3.8-6.8c0.3-0.9,0.6-1.3,1-1.3c0.7,0,1.5,0.9,1.5,1.7c0,0,0,0.3,0,0.4
		c-1.5,4.9-3.9,7.5-6.2,9.5v7.4c0,4.5-2.3,6.1-4.4,6.1c-2.4,0-4.1-2.2-4.1-4.9c0-4.3,2.5-6.5,5.3-9v-5.4c-1,1.7-2.3,2.9-4.2,2.9
		c-1.7,0-2.9-0.8-3.7-2.2c-1,1.3-2.3,2.2-4.1,2.2c-2,0-4.4-1.1-4.4-4.9c0-2.7,0.8-5.8,2.1-9.4h-3.2h-0.5c0,1.7-0.3,5.4-1.1,7.8
		c0,0,0,0.1,0,0.1c-0.8,2.8-2.5,6.3-6,6.3c-1.4,0-2.6-0.7-3.2-1.7c-0.9,0.9-2.2,1.7-3.8,1.7c-1.8,0-3.3-0.7-4.2-2.1
		c-1,1.2-2.3,2.1-4,2.1c-2.3,0-3.6-1.8-3.6-4V181c0-1.3-0.1-2.4-0.9-2.4c-1.2,0-3.9,3.7-4.2,7v6.2c0,0.8,0,1.8-1.2,1.8
		c-0.8,0-2-0.3-2-1.8c-0.9,1.1-2.2,1.8-3.8,1.8c-1.9,0-3.2-1.3-3.5-3c-1,1.8-2.4,3.1-4.3,3.1c-1.7,0-2.9-0.8-3.7-2.2
		c-1,1.3-2.3,2.2-4.1,2.2c-1.5,0-2.6-0.7-3.3-1.7c-0.9,1-2,1.7-3.7,1.7c-3.3,0-5.1-2.8-5.1-6.4c0-7.1,4.9-11.5,10.1-11.5
		c1.2,0,2,0.7,2,1.8c0,0.7-0.1,1-0.6,1c-0.4,0-0.8-0.1-1.2-0.1c-3.2,0-7,2.8-7,8.9c0,2.2,0.9,3.5,2.4,3.5c1.2,0,1.9-1,2.4-2.2v-6.6
		c0-0.8-0.2-1.1-0.2-1.4c0-0.4,0.5-0.7,1.1-0.7c1.4,0,2.3,0.9,2.3,1.9v7c0,0.9,0.4,2,1.4,2c1.3,0,2-1.5,2.5-3.1c0-0.1,0-0.1,0-0.2
		c0-4.5,1.5-9.6,1.5-9.6c0.3-0.7,0-1.6,2.3-1.6c2.1,0,0.9,1.7,0.7,2.3c-0.8,3.2-1.2,5-1.2,8.6c0,2.3,0.7,3.5,2,3.5
		c1.7,0,3-2.8,3.5-5.8v-6.9c0-1.2-0.4-1.3-0.4-1.6c0-0.3,0.8-0.5,1.4-0.5c1.4,0,2.3,0.9,2.3,1.9v10.8c0,0.4,0,2,1.1,2
		c1.7,0,2.5-2.7,2.9-4.6c0-0.2,0.1-0.4,0.2-0.6v-7.4c0-0.8-0.2-1.1-0.2-1.4c0-0.4,0.5-0.7,1.1-0.7c1.4,0,2.3,0.9,2.3,1.9v1.9
		c1.2-2.4,2.7-4.2,4.8-4.2c2.9,0,3.5,2.3,3.5,4.3v8.8c0,0.4,0,2,1.1,2c1,0,1.7-1,2.2-2.2c-0.1-0.6-0.2-1.2-0.2-1.9
		c0-6.5,4-10.3,8.6-11v-9.6c0-1.2-0.4-1.3-0.4-1.6C169.7,164.3,170.5,164.1,171.1,164.1 M167.6,190.9c1.1,0,1.9-0.7,2.5-1.7v-10.5
		c-2.7,0.5-5.2,2.5-5.3,7.6c0,0.1,0.1,0.3,0.1,0.4c0,0,0,0.1,0,0.3c0,0,0,0,0,0C165,189.7,166.3,190.9,167.6,190.9 M197.9,207.4
		c1.4,0,1.2-2.6,1.2-3.4v-4.6c-1.4,1.4-2.3,3-2.3,5.6C196.8,206.4,197.2,207.4,197.9,207.4 M58.7,164.1c1.4,0,2.3,0.9,2.3,1.9v13.3
		c1.4-1.9,3.1-3.5,5-3.5c2.6,0,3.8,2.2,3.8,4.6c0,3.3-2.4,5.7-4.1,6.9c0.4,1.8,1.4,3.5,3,3.5c1.7,0,3-2,3.6-3.7
		c-0.1-0.6-0.2-1.2-0.2-1.9c0-5.4,3.2-9.5,6.5-9.5c2.4,0,3.8,1.7,3.8,4.3c0,3.2-2.2,6.9-6.3,8.1c0.6,1.4,1.7,2.6,4,2.6
		c3.3,0,4.7-2.8,5.2-5.4c0.2-0.8,0.7-1.1,1.2-1.1c0.7,0,1.5,0.7,1.4,1.5c-0.3,2.6-2,7.8-8.3,7.8c-2.4,0-4.8-1.2-6.2-3.4
		c-1.1,1.8-2.8,3.4-5.2,3.4c-3.4,0-5.6-3.8-5.6-6.7c0-1.3,4-2.7,4-6.6c0-1.1-0.6-1.8-1.4-1.8c-1,0-2.9,1.4-4.3,5.9v7.3
		c0,0.8,0,1.8-1.2,1.8c-0.9,0-2-0.3-2-1.9v-1.6c-0.8,0.4-1.7,0.7-2.7,0.7c-0.8,0-1.4-0.1-2.1-0.3c-1.1,1.8-2.7,3.1-5.1,3.1
		c-2.7,0-4.5-1.5-5.4-3.6c-0.8,0.5-1.8,0.9-3,0.9c-0.8,0-1.5-0.1-2.2-0.3c-1.1,1.8-2.7,3.1-5.2,3.1c-3.9,0-6-2.9-6-7.1v-20.3
		c0-1.2-0.4-1.3-0.4-1.6c0-0.3,0.8-0.5,1.4-0.5c1.4,0,2.3,0.9,2.3,1.9v20c0,2.8,1,4.9,3,4.9c1.1,0,1.8-0.6,2.3-1.5
		c-2.4-1.7-3.9-4.7-3.9-7.8c0-3.5,1.6-5,3.6-5c2.3,0,4.5,2.2,4.5,6.9c0,1.7-0.2,3.4-0.6,4.9c0.3,0.1,0.6,0.1,0.9,0.1
		c1.2,0,2.1-0.6,2.6-1.6c0-0.4-0.1-0.8-0.1-1.2c0-6.3,3.4-10.1,4.3-10.1c1.1,0,2,2.3,0.9,3c-0.7,1-2,2.6-2,6.8
		c0,3.6,1.4,5.4,3.1,5.4c1.2,0,2-0.6,2.5-1.6c-2-1.7-3.1-4.5-3.1-7.6c0-2.7,1.2-5,3.5-5c2,0,3.6,3,3.6,7.2c0,1.6-0.2,3.2-0.6,4.6
		c0.3,0.1,0.6,0.1,0.9,0.1c1.8,0,2.8-1.4,3.1-3.1v-19.2c0-1.2-0.4-1.3-0.4-1.6C57.3,164.3,58.1,164.1,58.7,164.1 M75.7,185.9
		c2.1-1,3.5-3.2,3.5-5.8c0-0.9-0.3-1.5-0.9-1.5c-2.1,0-2.7,4.7-2.6,6.5C75.6,185.4,75.7,185.6,75.7,185.9 M35.4,186.7
		c0.2-1,0.2-2,0.2-2.8c0-2.9-0.7-4.5-1.5-4.5c-0.6,0-0.8,0.8-0.8,2C33.3,183.5,34.1,185.4,35.4,186.7 M51.2,186.5
		c0.1-0.7,0.1-1.3,0.1-2c0-2.9-0.1-5-1-5c-0.5,0-0.7,0.7-0.7,2C49.6,183.4,50.3,185.2,51.2,186.5 M106.9,161.2
		c-6.9,0-11.1,6.3-11.1,12.1c0,3.3,1.1,5.7,2.1,8.1c0.3,0.7,0.6,1.4,0.9,2.2c-3.2,0-5.8,2.5-5.8,5.7c0,2.7,1.9,5.4,5.4,5.4
		c1.9,0,3.6-0.9,4.7-2.6c1.5,1.4,3.5,3,6,3c2.7,0,4.9-1.7,5.9-4.3c0.9,2.5,2.9,3.9,5.5,3.9c1.3,0,2.5-0.4,3.6-1.3
		c0.9,0.8,2.1,1.3,3.4,1.3c1.5,0,2.9-0.5,4-1.6c1,1.1,2.3,1.6,3.8,1.6c1.5,0,2.9-0.7,4-2c0.8,1.2,2.2,2,3.7,2c1.2,0,2.4-0.4,3.3-1.1
		c0.5,0.7,1.4,1.1,2.5,1.1c0.6,0,1.2-0.2,1.6-0.6c0.6-0.6,0.6-1.5,0.6-2.2l0-0.1v-6.2c0.3-2.7,2.1-5.4,3-6c0,0.2,0.1,0.6,0.1,1.3
		v8.7c0,2.9,1.9,5,4.6,5c1.5,0,2.9-0.5,4-1.6c1.1,1.1,2.6,1.6,4.3,1.6c1.3,0,2.6-0.4,3.7-1.3c0.9,0.8,2.1,1.3,3.3,1.3
		c3.2,0,5.7-2.5,7-7c0,0,0-0.1,0-0.1c0.7-2.3,1-5.5,1.1-7.1h1.3c-1.2,3.4-1.7,6-1.7,8.4c0,4.3,2.9,5.9,5.4,5.9c1.5,0,2.8-0.5,4-1.6
		c1,1.1,2.3,1.6,3.8,1.6c1.2,0,2.2-0.4,3.2-1.2v2.2c-2.8,2.4-5.3,4.8-5.3,9.4c0,3.4,2.2,5.9,5.1,5.9c2.6,0,5.4-1.9,5.4-7.1v-6.9
		c2.3-2,4.7-4.6,6.2-9.6c0.1-0.3,0.1-0.5,0.1-0.7c0-1.4-1.3-2.7-2.5-2.7c-0.9,0-1.6,0.7-2,2c-0.4,1.5-1,2.8-1.8,4.1v-12
		c0-1.6-1.4-2.9-3.3-2.9c-1.2,0-2.1,0.7-2.1,1.7c0,0.2,0,0.4,0.1,0.6c0,0.2,0.1,0.4,0.1,0.8v6.8c-0.5,3-1.7,4.8-2.5,4.8
		c-0.7,0-1-1.3-1-2.5c0-3.4,0.4-5.2,1.2-8.2l0-0.1c0-0.1,0.1-0.2,0.1-0.3c0.3-0.6,0.7-1.6,0.2-2.5c-0.4-0.6-1-0.8-1.9-0.8
		c-2.2,0-2.8,0.8-3.1,1.9c0,0.1,0,0.2-0.1,0.3c0,0,0,0.1,0,0.1c-0.1,0.2-1.6,5.3-1.6,9.9c0,0,0,0.1,0,0.1c-0.5,1.4-1,2.2-1.7,2.2
		c-0.7,0-0.7-1.2-0.7-1.3c0-3,1-6.5,1.6-8.3c0.2-0.8,0.3-1.1,0.4-1.4c0.1-0.6-0.2-1.4-0.8-2.1c-0.4-0.5-1.4-1.4-2.3-1.4h-2.2
		c-0.3,0-0.7,0-1.5-0.1c-0.6-1.5-1.9-2.3-3.4-2.3c-1.8,0-3.1,1.3-3.1,3c0,1.3,0.6,2.4,1.8,3.3c-0.1,2.4-0.3,5.3-0.6,6.6
		c0,0.1,0,0.2,0,0.2c0,0,0,0,0,0.1c-0.7,3.5-1.6,3.8-1.9,3.8c-0.4,0-0.4-0.7-0.4-1V166c0-1.6-1.4-2.9-3.3-2.9
		c-1.5,0-2.4,0.6-2.4,1.5c0,0.4,0.2,0.6,0.3,0.8c0.1,0.1,0.2,0.3,0.2,0.8v8.8c-4.4,1-8.6,4.9-8.6,11.8c0,0.6,0,1.2,0.1,1.8
		c-0.2,0.5-0.6,1.2-1.1,1.3c0-0.1-0.1-0.3-0.1-1v-8.8c0-3.3-1.7-5.3-4.5-5.3c-1.5,0-2.8,0.7-4,2.1c-0.5-1-1.6-1.7-3-1.7
		c-1.2,0-2.1,0.7-2.1,1.7c0,0.2,0,0.4,0.1,0.6c0,0.2,0.1,0.4,0.1,0.8v7.2c-0.1,0.2-0.1,0.4-0.2,0.6c-0.7,3.4-1.5,3.8-1.8,3.8
		c0-0.1-0.1-0.3-0.1-1v-10.8c0-1.6-1.4-2.9-3.3-2.9c-1.5,0-2.4,0.6-2.4,1.5c0,0.4,0.2,0.6,0.3,0.8c0.1,0.1,0.2,0.3,0.2,0.8v6.8
		c-0.5,3-1.7,4.8-2.5,4.8c-0.7,0-1-1.3-1-2.5c0-3.4,0.4-5.2,1.2-8.2l0-0.1c0-0.1,0.1-0.2,0.1-0.3c0.3-0.6,0.7-1.6,0.2-2.5
		c-0.4-0.6-1-0.8-1.9-0.8c-2.2,0-2.8,0.8-3.1,1.9c0,0.1,0,0.2-0.1,0.3c0,0,0,0.1,0,0.1c-0.1,0.2-1.6,5.3-1.6,9.9c0,0,0,0.1,0,0.1
		c-0.4,1.4-1,2.2-1.5,2.2c-0.4,0-0.4-0.7-0.4-1v-7c0-1-0.5-1.8-1.4-2.4c0.2,0,0.4,0,0.6,0c0.7,0,1.6-0.3,1.6-2c0-1.6-1.2-2.8-3-2.8
		c-5,0-10.3,3.7-11.1,10.7c-0.6-0.4-1.3-0.7-2.3-0.7c-1.2,0-1.5,0.8-1.5,1.3c0,0.2,0,0.3,0,0.4c0,0.1,0,0.2,0,0.4
		c0,0.3-0.1,2.9-2.1,2.9c-1,0-2.1-1.2-3.3-2.4c-0.3-0.3-0.6-0.6-0.9-0.9c-0.1-2.7-1-4.9-1.9-7.1c-0.8-2-1.6-3.9-1.6-5.9
		c0-3.4,2.1-7,5.6-7c1.8,0,2.1,1.3,2.1,2.1c0,2-3,4.7-5.2,4.7c0,0-0.1,0-0.1-0.1c-0.1-0.1-0.4-0.2-0.7-0.2c-0.7,0-1.3,0.5-1.3,1.6
		c0,2.4,1.6,3.4,3.2,3.4c4.3,0,9.6-4.4,9.6-10C114.3,164.1,111.2,161.2,106.9,161.2L106.9,161.2z M165.8,186.2
		c0.1-3.2,1.2-5.3,3.3-6.2v8.9c-0.4,0.6-0.9,1-1.5,1c-1,0-1.7-1-1.8-2.7c0-0.2,0-0.3,0-0.4C165.9,186.6,165.9,186.4,165.8,186.2
		L165.8,186.2z M121.2,189.9c-1.3,0-1.4-1.7-1.4-2.5c0-3.1,1.1-5.4,2.6-6.6c0,0.2,0,0.4,0.1,0.6c0,0.2,0.1,0.4,0.1,0.8v6.4
		C122.4,189.1,121.9,189.9,121.2,189.9L121.2,189.9z M98.6,189.7c-0.4,0-0.5-0.4-0.5-0.6c0-0.4,0.2-0.6,0.5-0.6
		c0.3,0,0.5,0.1,0.8,0.2C99.2,189.3,99,189.7,98.6,189.7L98.6,189.7z M197.9,206.2c-0.1-0.2-0.2-0.6-0.2-1.1c0-0.8,0.1-1.5,0.3-2.2
		v1.1l0,0.3C198.1,205.3,198,205.9,197.9,206.2L197.9,206.2z M16.5,161.7c-1.4,0-2.6,0.4-3.5,1.3c-1.5-1.2-3.1-1.3-3.9-1.3
		c-2.9,0-6.3,2-6.3,7.8v17.8c0,2.6-0.6,3.1-0.6,3.1c-0.1,0-0.2,0-0.3,0c-1.3,0-1.4,0.9-1.4,1.2c0,1.5,1,3,3,3c1.4,0,4.7-0.7,4.7-6.8
		V169c0-2.2,0.7-2.2,1-2.2c0.4,0,1,0,1,2.2v23.9c0,1.2,0.7,1.8,2.1,1.8c1,0,3.5-0.6,3.5-2c0-0.2-0.1-0.5-0.2-0.7v-22.6
		c0-2.7,0.7-2.7,1-2.7c0.3,0,1,0,1,2.2v19.7c0,4,1.9,5.9,3.7,5.9l0.1,0c1.6,0,3.2-1.3,3.5-2.3c0.2-0.6,0-1.2-0.6-1.5
		c0,0-0.1,0-0.1,0c-0.9-0.5-1.4-1.2-1.4-2.4v-19C22.9,163.7,19.5,161.7,16.5,161.7L16.5,161.7z M58.7,163.1c-1.5,0-2.4,0.6-2.4,1.5
		c0,0.4,0.2,0.6,0.3,0.8c0.1,0.1,0.2,0.3,0.2,0.8v19.2c-0.1,0.8-0.5,1.9-1.7,2.1c0.2-1.1,0.3-2.3,0.3-3.7c0-4.7-1.9-8.2-4.6-8.2
		c-1,0-1.9,0.4-2.6,1c-0.4-1.2-1.3-2-2.2-2c-1.8,0-5.3,4.7-5.3,11.1c0,0.3,0,0.6,0,1c-0.3,0.4-0.7,0.7-1.2,0.8
		c0.3-1.2,0.4-2.6,0.4-3.9c0-5.5-2.8-7.9-5.5-7.9c-1.6,0-3.2,0.8-4,2.7V166c0-1.6-1.4-2.9-3.3-2.9c-1.5,0-2.4,0.6-2.4,1.5
		c0,0.4,0.2,0.6,0.3,0.8c0.1,0.1,0.2,0.3,0.2,0.8v20.3c0,4.9,2.8,8.1,7,8.1c2.4,0,4.3-1,5.7-2.9c0.5,0.1,1.1,0.2,1.7,0.2
		c0.9,0,1.8-0.2,2.5-0.5c1.3,2.1,3.3,3.3,5.9,3.3c2.3,0,4.2-1,5.6-2.9c0.5,0.1,1,0.1,1.6,0.1c0.6,0,1.2-0.1,1.7-0.2v0.1
		c0,1.8,1.2,2.9,3,2.9c0.6,0,1.2-0.2,1.6-0.6c0.6-0.6,0.6-1.5,0.6-2.2l0-0.1v-2.6c0.8,2.7,3,5.5,6.2,5.5c2,0,3.8-0.9,5.3-2.8
		c1.6,1.7,3.8,2.8,6.2,2.8c6.1,0,8.8-4.5,9.3-8.6c0.1-0.7-0.1-1.3-0.6-1.8c-0.5-0.5-1.2-0.8-1.8-0.8c-1.1,0-1.9,0.8-2.2,1.9
		c-0.6,3-2,4.6-4.2,4.6c-1.1,0-1.9-0.4-2.5-1.1c3.9-1.7,5.9-5.5,5.9-8.7c0-3.2-1.9-5.3-4.8-5.3c-4.1,0-7.5,4.8-7.5,10.5
		c0,0.6,0,1.2,0.1,1.8c-0.5,1.4-1.5,2.8-2.5,2.8c-1,0-1.6-1.2-1.9-2.2c1.5-1.2,4-3.8,4-7.3c0-3.4-1.9-5.6-4.8-5.6
		c-1.4,0-2.7,0.6-4,1.9V166C62,164.4,60.6,163.1,58.7,163.1L58.7,163.1z M62,184.7c1.2-4.2,2.9-5,3.3-5c0.3,0,0.4,0.5,0.4,0.8
		c0,2-1.3,3.3-2.4,4.3c-0.5,0.4-0.9,0.8-1.2,1.3V184.7L62,184.7z M76.6,184c0.1-1.5,0.5-3.4,1.2-4.1c0.1-0.1,0.2-0.1,0.2-0.2
		c0,0.1,0,0.2,0,0.5C78.2,181.7,77.6,183,76.6,184L76.6,184z M34.5,180.3L34.5,180.3L34.5,180.3L34.5,180.3z M50.8,180.3L50.8,180.3
		L50.8,180.3L50.8,180.3z M34.6,183.3c-0.2-0.6-0.2-1.2-0.2-1.8c0,0,0,0,0,0C34.4,181.9,34.5,182.5,34.6,183.3L34.6,183.3z
		 M47.9,189.9c-1.2,0-2.1-1.8-2.1-4.4c0-1.7,0.2-2.9,0.5-3.8c0,0,0,0,0,0c0,3.1,1,5.8,2.8,7.7C48.8,189.7,48.4,189.9,47.9,189.9
		L47.9,189.9z M32.3,189.9c-1.9,0-2-3-2-3.9v-0.9c0.6,1.7,1.6,3.3,2.9,4.4C32.9,189.8,32.6,189.9,32.3,189.9L32.3,189.9z"/>
</g>
</svg>
